<svg width="377.68" height="512" fill="#BLUE#" version="1.1" viewBox="0 0 377.68 512" xmlns="http://www.w3.org/2000/svg">
	<path class="cls-1" d="m188.86 512c111.77 0 188.82-53.075 188.82-256 0-202.93-77.001-256-188.82-256s-188.86 53.075-188.86 256c0 202.93 77.09 256 188.86 256" style="fill:#SURFACE2#;stroke-width:4.4638"/>
	<path d="m172.26 35.889v174.8l-72.895-72.938-26.514 26.514 91.508 91.732v.0449l-91.508 91.73 26.514 26.516 72.895-72.939v174.76l132.58-132.58-87.535-87.535 87.535-87.535zm37.318 90.527 42.316 42.316-42.316 42.316zm0 174.54 42.316 42.316-42.316 42.316z"/>
</svg>
