<svg width="512" height="512" version="1.1" viewBox="0 0 512 512" xmlns="http://www.w3.org/2000/svg">
	<path d="m256 0s-31.1 0-54.889 45.076l-177.64 356.71c-10.806 21.699-20.282 59.232-23.471 76.132 6.9143 29.521 34.002 39.509 84.721 34.087h171.28zm0 0s31.1 0 54.889 45.076l177.64 356.71c10.806 21.699 20.282 59.232 23.471 76.132-6.9143 29.521-34.002 39.509-84.721 34.087h-171.28z" style="fill:#SURFACE2#;paint-order:markers fill stroke;stroke-linecap:square;stroke-width:223.42"/>
	<path d="m213.11 253.52c0-18.763 15.01-34.309 34.309-34.309h17.154c18.763 0 34.309 15.546 34.309 34.309v2.1443c0 11.794-6.4329 22.515-16.082 28.948l-22.515 14.474c-13.402 8.5772-21.443 23.587-21.443 39.669v.53607c0 9.6493 7.505 17.154 17.154 17.154 9.1132 0 17.154-7.505 17.154-17.154v-.53607c0-4.2886 2.1443-8.5772 5.8968-10.721l22.515-14.474c19.299-12.866 31.628-34.309 31.628-57.896v-2.1443c0-37.525-31.092-68.617-68.617-68.617h-17.154c-38.061 0-68.617 31.092-68.617 68.617 0 9.6493 7.505 17.154 17.154 17.154 9.1132 0 17.154-7.505 17.154-17.154zm42.886 171.54c7.505 0 14.474-3.7525 18.226-10.721 3.7525-6.4329 3.7525-14.474 0-21.443-3.7525-6.4329-10.721-10.721-18.226-10.721-8.0411 0-15.01 4.2886-18.763 10.721-3.7525 6.9689-3.7525 15.01 0 21.443 3.7525 6.9689 10.721 10.721 18.763 10.721z" style="fill:#ORANGE#;paint-order:markers fill stroke;stroke-linecap:square;stroke-width:177.42" aria-label=""/>
</svg>
