<svg fill="#fff" width="512" height="512" version="1.1" viewBox="0 0 512 512" xmlns="http://www.w3.org/2000/svg">
	<path d="m256 256c43.756 0 76.923 33.164 76.923 76.923 0 43.756-33.164 76.923-76.923 76.923-43.756 0-76.923-33.164-76.923-76.923 0-43.756 33.164-76.923 76.923-76.923zm0 205.54c67.949 0 128.62-54.509 128.62-128.62 0-67.949-54.509-128.62-128.62-128.62-68.925 0-128.62 59.694-128.62 128.62 0 67.949 54.509 128.62 128.62 128.62zm0-411.08c-29.024 0-51.692 22.672-51.692 51.692 0 29.024 22.672 51.692 51.692 51.692 29.024 0 51.692-22.672 51.692-51.692 0-29.024-22.672-51.692-51.692-51.692zm128.62-50.461c27.378 0 50.461 23.084 50.461 50.461v411.08c0 27.378-23.084 50.461-50.461 50.461h-257.23c-27.378 0-50.461-23.084-50.461-50.461v-411.08c0-27.378 23.084-50.461 50.461-50.461z"/>
</svg>
