<svg fill="#RED#" width="512" height="512" version="1.1" viewBox="0 0 512 512" xmlns="http://www.w3.org/2000/svg">
	<path transform="scale(1.0168 .98347)" d="m284.89 33.732c0-18.695-15.037-33.325-33.732-33.325s-33.325 14.631-33.325 33.325v235.31c0 18.695 14.631 33.732 33.325 33.732s33.732-15.037 33.732-33.732zm-152 93.067c14.224-11.786 16.256-32.919 4.4705-47.143-11.786-14.224-32.919-16.256-47.143-4.4705-55.271 46.33-90.628 115.83-90.628 193.86 0 139.4 112.57 251.97 251.56 251.97s251.97-112.57 251.97-251.97c0-78.03-35.764-147.53-91.035-193.86-14.224-11.786-35.357-9.7537-47.143 4.4705-11.786 14.224-10.16 35.357 4.064 47.143 40.64 33.732 66.65 85.345 66.65 142.24 0 102.01-82.5 184.91-184.51 184.91-102.01 0-184.91-82.907-184.91-184.91 0-56.897 26.01-108.51 66.65-142.24z"/>
</svg>
