<svg width="215.8mm" height="223.23mm" version="1.1" viewBox="0 0 215.8 223.23" xmlns="http://www.w3.org/2000/svg">
	<path d="m100.11 57.364c0 26.383-19.463 47.87-44.385 49.995v90.04c0 14.31 9.8979 25.831 22.192 25.831 12.295 0 22.192-11.521 22.192-25.831z" style="fill-opacity:.25571;paint-order:markers fill stroke;stroke-linecap:square;stroke-width:56.131"/>
	<path d="m48.444 3.175c-26.838 0-48.444 21.606-48.444 48.444v11.491c0 26.838 21.606 48.444 48.444 48.444h3.2189c1.3688 0 2.7198-.0706 4.0592-.18087 24.922-2.0511 44.385-22.794 44.385-48.263v-11.491c0-19.698-11.661-36.539-28.465-44.126-6.0911-2.7501-12.839-4.3181-19.979-4.3181z" style="fill-opacity:.25571;paint-order:markers fill stroke;stroke-linecap:square;stroke-width:47.716"/>
	<path d="m100.11 54.189c0 26.383-19.463 47.87-44.385 49.995v90.04c0 14.31 9.8979 25.831 22.192 25.831 12.295 0 22.192-11.521 22.192-25.831z" style="fill:#INACTIVE#;paint-order:markers fill stroke;stroke-linecap:square;stroke-width:56.131"/>
	<path d="m48.444 0c-26.838 0-48.444 21.606-48.444 48.444v11.491c0 26.838 21.606 48.444 48.444 48.444h3.2189c1.3688 0 2.7198-.0706 4.0592-.18087 24.922-2.0511 44.385-22.794 44.385-48.263v-11.491c0-19.698-11.661-36.539-28.465-44.126-6.0911-2.7501-12.839-4.3181-19.979-4.3181z" style="fill:#GREEN#;paint-order:markers fill stroke;stroke-linecap:square;stroke-width:47.716"/>
	<ellipse cx="13.424" cy="57.136" rx="7.4386" ry="28.469" style="fill:#INACTIVE#;paint-order:markers fill stroke;stroke-linecap:square;stroke-width:30.384"/>
	<path d="m140.76 110.01v86.761c0 14.657 9.8979 26.457 22.192 26.457s22.192-11.8 22.192-26.457v-86.761a63.549 67.175 0 01-22.192 4.412 63.549 67.175 0 01-22.192-4.412z" style="fill-opacity:.25571;paint-order:markers fill stroke;stroke-linecap:square;stroke-width:56.806"/>
	<ellipse cx="162.95" cy="57.365" rx="52.843" ry="52.648" style="fill-opacity:.25571;paint-order:markers fill stroke;stroke-linecap:square;stroke-width:43.629"/>
	<path d="m140.76 106.84v86.761c0 14.657 9.8979 26.457 22.192 26.457s22.192-11.8 22.192-26.457v-86.761a63.549 67.175 0 01-22.192 4.412 63.549 67.175 0 01-22.192-4.412z" style="fill:#INACTIVE#;paint-order:markers fill stroke;stroke-linecap:square;stroke-width:56.806"/>
	<ellipse cx="162.95" cy="54.189" rx="52.843" ry="52.648" style="fill:#GREEN#;paint-order:markers fill stroke;stroke-linecap:square;stroke-width:43.629"/>
	<ellipse cx="162.95" cy="57.365" rx="27.232" ry="28.241" style="fill:#INACTIVE#;paint-order:markers fill stroke;stroke-linecap:square;stroke-width:57.902"/>
</svg>
