<svg width="512" height="512" version="1.1" viewBox="0 0 512 512" xmlns="http://www.w3.org/2000/svg">
	<path d="m464 255.5c0-74-40-142-104-180-65-37-144-37-208 0-65 38-104 106-104 180 0 75 39 143 104 181 64 37 143 37 208 0 64-38 104-106 104-181zm-464 0c0-91 48-175 128-221 79-46 176-46 256 0 79 46 128 130 128 221 0 92-49 176-128 222-80 46-177 46-256 0-80-46-128-130-128-222zm256-96c34 0 65 19 83 48 17 30 17 67 0 96-18 30-49 48-83 48-35 0-66-18-84-48-17-29-17-66 0-96 18-29 49-48 84-48z" style="paint-order:markers fill stroke;stroke-linecap:square;stroke-width:330.97" aria-label=" "/>
</svg>
