<svg fill="#fff" width="512mm" height="512mm" version="1.1" viewBox="0 0 512 512" xmlns="http://www.w3.org/2000/svg">
	<path d="m442.13 243.24a121.9 121.9 0 01-52.034 11.664 121.9 121.9 0 01-52.034-11.664v216.72c0 28.827 23.207 52.034 52.034 52.034 28.827 0 52.034-23.207 52.034-52.034z" style="fill:#e40e18"/>
	<path d="m390.1 0c-67.609 2.6783-121.76 52.656-121.9 121.9.00015 69.766 57.43 121.9 121.9 121.9 64.467-.00035 121.9-52.131 121.9-121.9-.14181-69.241-54.286-119.22-121.9-121.9zm0 51.45c38.959-.000103 70.451 31.763 70.45 70.45.00012 38.687-31.491 70.451-70.45 70.45-38.959.00011-70.451-31.763-70.451-70.45 2e-4-38.687 31.491-70.451 70.451-70.45z"/>
	<path d="m155.02 17.214c19.858 15.682 43.056 51.114 43.056 104.69-6e-5 57.667-28.552 106.64-57.687 121.9l-.52318 216.17c-.0698 28.827 23.207 52.034 52.034 52.034 28.827 0 52.034-23.207 52.034-52.034v-407.93c0-28.827-23.207-52.034-52.034-52.034-15.412 0-27.369 6.634-36.88 17.214z" style="fill: #e40e18"/>
	<path d="m91.635 0c-50.856-3.0634e-5-92.083 54.577-92.083 121.9-4.172e-5 67.324 41.227 121.9 92.083 121.9 49.472-2e-4 92.083-53.092 92.083-121.9 5e-5-68.05-42.01-121.9-92.083-121.9zm-56.965 51.45c11.293.000483 20.448 45.998 20.448 70.45 0 24.453-9.1548 70.45-20.448 70.45-9.035.00041-22.304-40.603-22.113-70.45.1909-29.848 13.078-70.451 22.113-70.45z"/>
</svg>
