<svg fill="#fff" width="512" height="512" version="1.1" viewBox="0 0 512 512" xmlns="http://www.w3.org/2000/svg">
	<path d="m314.06 359.1 41.324 40.084 141.33-142.98-141.33-142.98-41.324 40.084 74.796 74.796h-276.04v56.2h276.04zm140.09-359.1h-397.53c-16.116 0-29.34 5.7853-40.497 16.943-11.157 11.157-16.529 24.381-16.529 40.497v397.53c0 16.116 5.3721 29.34 16.529 40.497 11.157 11.157 24.381 16.943 40.497 16.943h397.53c16.116 0 29.34-5.7853 40.497-16.943 11.157-11.157 16.943-24.381 16.943-40.497v-132.24l-57.44 56.2v76.035h-397.53v-397.53h397.53v76.035l57.44 56.2v-132.24c0-16.116-5.7853-29.34-16.943-40.497-11.157-11.157-24.381-16.943-40.497-16.943z"/>
</svg>
