<svg fill="#fff" width="512" height="512" version="1.1" viewBox="0 0 512 512" xmlns="http://www.w3.org/2000/svg">
	<path d="m-.41317 256.62c0-122.71 98.559-219.84 219.43-219.84 125.37 0 219.43 103.93 219.43 219.84h73.143l-95.871 97.11h-2.4794l-97.11-97.11h73.143c0-36.778-9.9177-69.837-30.579-98.763-53.446-78.955-180.89-102.59-260.75-22.728-51.236 51.236-62.982 122.13-36.778 186.37 40.83 100.1 148.03 123.7 223.15 92.152 20.662-8.678 38.431-21.075 53.721-37.191l36.365 36.778c-37.207 35.719-91.862 62.812-155.38 62.812-113.51 0-219.43-90.094-219.43-219.43z"/>
	<path transform="matrix(.41198 0 0 .41198 220.24 203.36)" d="m-254.85 106.43v-91.947h66.422v91.947h26.898v-200.36h-26.898v86.732h-66.422v-86.732h-26.898v200.36zm158.64-140.94h-27.31c15.096 54.482 34.858 98.809 60.932 143.82l-3.2936 5.9011c-7.1362 13.175-19.487 26.486-43.915 26.486-6.8617 0-14.547-.96064-20.86-2.333l5.6266 23.467c4.3915.82341 10.155 1.6468 16.331 1.6468 35.269 0 60.658-32.387 75.342-62.03l6.45-12.763c16.88-34.034 37.328-80.968 47.758-124.2h-26.486c-10.018 43.778-23.467 79.047-42.131 114.87h-2.1958c-18.527-33.485-35.269-71.911-46.248-114.87zm285.45 63.951c0-40.072-19.35-67.108-57.364-67.108-20.585 0-36.093 8.2341-48.444 18.527h-3.1564v-15.37h-24.428v195.83h26.349v-57.227c10.018 3.5681 20.722 5.4894 31.976 5.4894 42.268 0 75.067-27.721 75.067-80.145zm-107.04 51.875v-87.556c12.763-6.3128 26.075-10.704 38.975-10.704 32.387 0 39.935 25.937 39.935 53.11 0 29.78-8.6458 40.621-16.605 46.111-7.9596 5.6266-15.508 7.5479-25.8 7.5479-12.488 0-24.702-2.8819-36.504-8.5085zm202.83-115.83h-61.069l-3.2936 20.997h40.347v98.946h-39.798l3.1564 20.997h111.57l3.1564-20.997h-51.737v-78.635c22.781-12.763 43.366-19.35 72.734-18.527l-1.3724-24.702c-3.8426-.82341-7.5479-1.2351-11.528-1.2351-25.388 0-47.758 12.626-59.971 32.799h-2.1958z"/>
</svg>
