<svg fill="#fff" width="512" height="512" version="1.1" viewBox="0 0 512 512" xmlns="http://www.w3.org/2000/svg">
	<path d="m257.35 89.098v-89.098l-132.12 131.11 132.12 132.12v-121.28c19.649 0 39.637 4.0653 59.286 11.857 19.649 7.7918 36.926 18.971 51.833 32.861 19.649 20.327 32.861 44.38 39.975 72.159s7.453 54.882.33878 81.645c-7.1143 26.763-20.665 50.478-40.314 71.143-17.278 16.6-36.926 28.457-59.286 36.249-22.359 7.7918-45.057 10.163-68.094 7.7918l-12.196 53.188c32.184 4.0653 63.351 1.3551 93.841-8.4694 32.184-10.841 59.624-28.457 81.645-53.188 27.102-26.424 45.396-57.592 54.882-93.841 9.4857-36.249 9.4857-72.498 0-108.75-9.4857-36.249-27.78-68.094-54.882-95.196-18.971-18.633-41.331-33.539-66.739-44.38-25.408-10.841-52.171-15.922-80.29-15.922zm-150.75 358.09c21.343 21.343 45.396 37.604 71.82 48.106l15.922-53.188c-19.31-7.453-35.233-17.278-48.445-30.49-24.731-24.053-39.298-52.849-44.718-86.049-5.4204-33.2-.67755-64.706 14.229-93.502l-39.637-39.298c-24.053 40.992-33.2 85.371-27.78 132.8 5.4204 47.429 25.069 87.743 58.608 121.62z"/>
</svg>
