<svg width="18" height="18" version="1.1" viewBox="0 0 18 18" xmlns="http://www.w3.org/2000/svg">
	<g transform="translate(-.43687 -.0047498)">
		<path d="m3.7044 12.354c-.71695 0-1.2616.66-.97202 1.3132.35158.80969.86862 1.5649 1.5373 2.2249 2.854 2.8169 7.4867 2.8169 10.341-3e-6.6687-.66 1.1719-1.4153 1.5304-2.2181.28954-.6532-.24818-1.32-.96513-1.32l-5.1772.0068 7e-7-1.4016c.089619-.04763.16545-.10887.23439-.17691.4412-.43546.4412-1.1295 0-1.5649-.4412-.43546-1.1444-.43546-1.5856 1e-6-.4412.43546-.4481 1.1363-.00689 1.5718.068938.06804.15166.13608.23439.17691l-4e-7 1.388z" style="fill:#45475a;inline-size:404.082;paint-order:markers fill stroke;stroke-linecap:square;stroke-width:8.5923;white-space:pre" aria-label=""/>
		<g transform="translate(-3.8659 -23.773)">
			<rect x="8.9465" y="26.158" width="13.356" height="5.1826" ry="2.5913" style="fill:#f9f9f9;paint-order:markers fill stroke;stroke-linecap:square;stroke-width:133.75"/>
			<ellipse cx="16.751" cy="26.176" rx="3.2724" ry="2.3988" style="fill:#f9f9f9;paint-order:markers fill stroke;stroke-linecap:square;stroke-width:133.75"/>
		</g>
	</g>
</svg>
