<svg fill="#fff" width="512" height="512" version="1.1" viewBox="0 0 512 512" xmlns="http://www.w3.org/2000/svg">
	<path d="m204.31 153.85c0-55.139-78.031-128.62-127.38-128.62-53.93 0-76.923 54.281-76.923 76.923v128.62c0 27.5 26.698 76.923 76.308 76.923 15.692 0 32.615-6.7692 51.077-19.385v173.23c2.4819 23.738 20.472 25.231 39.077 25.231 18.426.99253 35.932-3.1088 37.846-25.231zm167.08-128.62c81.147 0 140.62 64.998 140.62 140.62 0 80.685-63.77 141.85-140.62 141.85-76.852 0-140.62-61.169-140.62-141.85 0-81.519 65.669-140.62 140.62-140.62zm-51.692 299.38c16.923 5.5384 34.154 8.3077 51.692 8.3077s34.769-2.7692 51.692-8.3077v136.92c0 13.398-12.521 25.231-26.462 25.231h-50.461c-13.941 0-26.462-11.833-26.462-25.231z"/>
</svg>
