<svg width="509.92" height="356.28" fill="#ffffff" version="1.1" viewBox="0 0 509.92 356.28" xmlns="http://www.w3.org/2000/svg">
	<path d="m361.23 92c-5.4024 0-10.806 2.0871-14.98 6.2617-8.3492 8.3492-8.3492 21.61 0 29.959l48.867 48.621-48.867 48.867c-8.3492 8.3492-8.3492 21.61 0 29.959s21.61 8.3492 29.959 0l48.867-48.867 48.623 48.867c8.3492 8.3492 21.61 8.3492 29.959 0 8.3492-8.3492 8.3492-21.61 0-29.959l-48.623-48.867 48.623-48.621c8.3492-8.3492 8.3492-21.61 0-29.959-8.3492-8.3492-21.61-8.3492-29.959 0l-48.623 48.621-48.867-48.621c-4.1746-4.1746-9.5761-6.2617-14.979-6.2617z"/>
	<path d="m236.13 0c-49.384.71553-96.426 69.743-130.76 100.2-44.248.27621-100.33-10.654-105.37 51.244v51.244c4.9936 61.598 61.38 51.244 105.37 51.244 38.62 14.775 87.008 119.03 135.54 100.05 9.0953-4.2149 15.084-13.31 15.084-23.293v-307.24c0-9.9827-5.9887-19.078-15.084-23.293-1.5976-.12268-3.1941-.16957-4.7871-.14648z" style="fill:#f9e2af"/>
</svg>
