<svg width="511.99" height="362.32" fill="#ffffff" version="1.1" viewBox="0 0 511.99 362.32" xmlns="http://www.w3.org/2000/svg">
	<path d="m240.91 3.9267c-51.122-3.9256-100.11 68.614-135.54 100.05-44.248.27621-100.33-10.653-105.37 51.244v51.244c4.9936 61.598 61.38 51.244 105.37 51.244 38.62 14.775 87.007 119.03 135.54 100.05 9.0953-4.2149 15.085-13.31 15.085-23.293v-307.24c0-9.9827-5.9896-19.078-15.085-23.293z" style="fill:#f9e2af"/>
	<path d="m399.74 4.8107c-24.411 30.107 73.872 53.247 73.872 176.14 0 122.79-98.318 145.77-73.872 175.92 23.672 29.195 112.25-63.268 112.25-175.92 0-116.5-90.787-202.61-112.25-176.14zm-48.36 59.674c-22.137 27.302 45.255 36.906 45.255 116.46 0 79.504-67.581 88.707-45.255 116.24 22.33 27.541 83.854-40.58 83.854-116.24 0-75.714-61.475-144.07-83.854-116.46zm-48.36 59.452c-17.253 21.279 16.86 27.141 16.86 57.012 0 29.642-34.127 35.494-16.86 56.79 18.378 22.666 55.237-14.147 55.237-56.79 0-42.735-36.807-79.743-55.237-57.012z"/>
</svg>
