<?xml version="1.0" encoding="UTF-8" standalone="no"?>
<!-- Created with Inkscape (http://www.inkscape.org/) -->

<svg
   width="256mm"
   height="256mm"
   viewBox="0 0 256 256"
   version="1.1"
   id="svg1"
   inkscape:version="1.3.2 (091e20ef0f, 2023-11-25, custom)"
   sodipodi:docname="audio-headset.svg"
   xmlns:inkscape="http://www.inkscape.org/namespaces/inkscape"
   xmlns:sodipodi="http://sodipodi.sourceforge.net/DTD/sodipodi-0.dtd"
   xmlns="http://www.w3.org/2000/svg"
   xmlns:svg="http://www.w3.org/2000/svg"
   xmlns:rdf="http://www.w3.org/1999/02/22-rdf-syntax-ns#"
   xmlns:cc="http://creativecommons.org/ns#">
  <sodipodi:namedview
     id="namedview1"
     pagecolor="#ffffff"
     bordercolor="#000000"
     borderopacity="0.25"
     inkscape:showpageshadow="2"
     inkscape:pageopacity="0.0"
     inkscape:pagecheckerboard="true"
     inkscape:deskcolor="#d1d1d1"
     inkscape:document-units="mm"
     inkscape:zoom="0.44631734"
     inkscape:cx="401.05993"
     inkscape:cy="562.38012"
     inkscape:window-width="2548"
     inkscape:window-height="1401"
     inkscape:window-x="0"
     inkscape:window-y="0"
     inkscape:window-maximized="1"
     inkscape:current-layer="layer1"
     showguides="true">
    <sodipodi:guide
       position="64.616765,211.53892"
       orientation="0,-1"
       id="guide1"
       inkscape:locked="false" />
    <sodipodi:guide
       position="75.824151,155.22155"
       orientation="0,-1"
       id="guide2"
       inkscape:locked="false" />
  </sodipodi:namedview>
  <defs
     id="defs1" />
  <g
     inkscape:label="Layer 1"
     inkscape:groupmode="layer"
     id="layer1">
    <g
       id="g1"
       transform="translate(1.1196688,2.6458334)">
      <path
         id="rect1-1-2"
         style="fill:#000000;fill-opacity:0.255708;stroke-width:56.8065;stroke-linecap:square;paint-order:markers fill stroke"
         d="m 159.7427,123.16022 v 86.761 c 0,14.65721 9.89791,26.45712 22.19245,26.45712 12.29454,0 22.19244,-11.79991 22.19244,-26.45712 v -86.761 a 63.548737,67.174523 0 0 1 -22.19244,4.41199 63.548737,67.174523 0 0 1 -22.19245,-4.41199 z" />
      <path
         d="m 119.08937,70.512492 c 0,26.382976 -19.46267,47.870258 -44.384886,49.994968 v 90.03965 c 0,14.31047 9.897905,25.83123 22.192444,25.83123 12.294542,0 22.192442,-11.52076 22.192442,-25.83123 z"
         style="fill:#000000;fill-opacity:0.255708;stroke-width:56.1306;stroke-linecap:square;paint-order:markers fill stroke"
         id="path7" />
      <ellipse
         style="fill:#000000;fill-opacity:0.255708;stroke-width:43.6291;stroke-linecap:square;paint-order:markers fill stroke"
         id="path1-3-2"
         cx="181.93515"
         cy="70.512535"
         rx="52.843208"
         ry="52.64769" />
      <path
         id="path6"
         style="fill:#000000;fill-opacity:0.255708;stroke-width:47.7163;stroke-linecap:square;paint-order:markers fill stroke"
         d="m 67.426375,16.323035 c -26.837892,0 -48.444071,21.606178 -48.444071,48.444071 v 11.490772 c 0,26.837892 21.606179,48.444072 48.444071,48.444072 H 70.6453 c 1.368812,0 2.719764,-0.0706 4.059184,-0.18087 24.922191,-2.05111 44.384886,-22.79413 44.384886,-48.263202 V 64.767106 c 0,-19.6979 -11.66136,-36.538883 -28.465444,-44.125989 C 84.532867,17.890984 77.785292,16.323035 70.6453,16.323035 Z" />
    </g>
    <g
       id="g2"
       transform="translate(1.1196688,-0.52916663)">
      <path
         id="rect1-1-2-7"
         style="fill:#515b6d;fill-opacity:1;stroke-width:56.8065;stroke-linecap:square;paint-order:markers fill stroke"
         d="m 159.7427,123.16022 v 86.761 c 0,14.65721 9.89791,26.45712 22.19245,26.45712 12.29454,0 22.19244,-11.79991 22.19244,-26.45712 v -86.761 a 63.548737,67.174523 0 0 1 -22.19244,4.41199 63.548737,67.174523 0 0 1 -22.19245,-4.41199 z" />
      <path
         d="m 119.08937,70.512492 c 0,26.382976 -19.46267,47.870258 -44.384886,49.994968 v 90.03965 c 0,14.31047 9.897905,25.83123 22.192444,25.83123 12.294542,0 22.192442,-11.52076 22.192442,-25.83123 z"
         style="fill:#515b6d;fill-opacity:1;stroke-width:56.1306;stroke-linecap:square;paint-order:markers fill stroke"
         id="path7-0" />
      <ellipse
         style="fill:#a6e3a1;fill-opacity:1;stroke-width:43.6291;stroke-linecap:square;paint-order:markers fill stroke"
         id="path1-3-2-9"
         cx="181.93515"
         cy="70.512535"
         rx="52.843208"
         ry="52.64769" />
      <path
         id="path6-3"
         style="fill:#a6e3a1;fill-opacity:1;stroke-width:47.7163;stroke-linecap:square;paint-order:markers fill stroke"
         d="m 67.426375,16.323035 c -26.837892,0 -48.444071,21.606178 -48.444071,48.444071 v 11.490772 c 0,26.837892 21.606179,48.444072 48.444071,48.444072 H 70.6453 c 1.368812,0 2.719764,-0.0706 4.059184,-0.18087 24.922191,-2.05111 44.384886,-22.79413 44.384886,-48.263202 V 64.767106 c 0,-19.6979 -11.66136,-36.538883 -28.465444,-44.125989 C 84.532867,17.890984 77.785292,16.323035 70.6453,16.323035 Z" />
    </g>
    <ellipse
       style="fill:#515b6d;fill-opacity:1;stroke-width:30.3835;stroke-linecap:square;paint-order:markers fill stroke"
       id="path1"
       cx="33.525711"
       cy="72.930328"
       rx="7.4385571"
       ry="28.469252" />
    <ellipse
       style="fill:#515b6d;fill-opacity:1;stroke-width:57.9017;stroke-linecap:square;paint-order:markers fill stroke"
       id="path1-3"
       cx="183.05482"
       cy="73.158371"
       rx="27.232473"
       ry="28.241211" />
  </g>
  <metadata
     id="metadata1">
    <rdf:RDF>
      <cc:License
         rdf:about="http://artlibre.org/licence/lal">
        <cc:permits
           rdf:resource="http://creativecommons.org/ns#Reproduction" />
        <cc:permits
           rdf:resource="http://creativecommons.org/ns#Distribution" />
        <cc:permits
           rdf:resource="http://creativecommons.org/ns#DerivativeWorks" />
        <cc:requires
           rdf:resource="http://creativecommons.org/ns#ShareAlike" />
        <cc:requires
           rdf:resource="http://creativecommons.org/ns#Notice" />
        <cc:requires
           rdf:resource="http://creativecommons.org/ns#Attribution" />
      </cc:License>
      <cc:Work
         rdf:about="">
        <cc:license
           rdf:resource="http://artlibre.org/licence/lal" />
      </cc:Work>
    </rdf:RDF>
  </metadata>
</svg>
