<svg width="351.97" height="512" fill="#a6e3a1" version="1.1" viewBox="0 0 351.97 512" xmlns="http://www.w3.org/2000/svg">
	<path d="m47.983 215.78c0-13.313-10.817-23.853-24.13-23.853s-23.853 10.54-23.853 23.853v40.217c0 89.031 66.288 162.53 151.99 174.18v33.837h-47.983c-13.313 0-24.13 10.54-24.13 23.853s10.817 24.13 24.13 24.13h143.95c13.313 0 23.853-10.817 23.853-24.13s-10.54-23.853-23.853-23.853h-47.983v-33.837c85.703-11.649 151.99-85.148 151.99-174.18v-40.217c0-13.313-10.817-23.853-24.13-23.853s-23.853 10.54-23.853 23.853v40.217c0 70.726-57.413 127.86-128.14 127.86s-127.86-57.135-127.86-127.86z" style="fill:#45475a"/>
	<path d="m175.84 0c-52.975 0-95.965 42.99-95.965 95.965v160.03c0 52.975 42.99 95.965 95.965 95.965s95.965-42.99 95.965-95.965v-160.03c0-52.975-42.99-95.965-95.965-95.965z"/>
</svg>
