<svg width="512" height="512" version="1.1" viewBox="0 0 512 512" xmlns="http://www.w3.org/2000/svg">
	<g transform="matrix(2.2031 0 0 2.2031 -25.819 -21.79)">
		<rect x="11.719" y="32.451" width="232.4" height="187.28" ry="18.981" style="fill:#45475a;paint-order:markers fill stroke;stroke-linecap:square;stroke-width:177.42"/>
		<path d="m57.396 179.95h141.13l21.972 39.772-184.54 1e-5z" style="fill:#585b70;paint-order:markers fill stroke;stroke-linecap:square;stroke-width:177.42"/>
		<circle cx="178.57" cy="197.96" r="10.294" style="fill:#45475a;paint-order:markers fill stroke;stroke-linecap:square;stroke-width:177.42"/>
		<circle cx="77.933" cy="197.96" r="10.294" style="fill:#45475a;paint-order:markers fill stroke;stroke-linecap:square;stroke-width:177.42"/>
		<rect x="35.974" y="56.474" width="184.52" height="112.39" ry="10.963" style="fill:#585b70;paint-order:markers fill stroke;stroke-linecap:square;stroke-width:177.42"/>
		<path d="m220.5 99.698v57.98c0 6.1976-4.9894 11.187-11.187 11.187h-162.15c-6.1976 0-11.187-4.9894-11.187-11.187l-1e-6-57.98z" style="fill:#94e2d5;paint-order:markers fill stroke;stroke-linecap:square;stroke-width:179.22"/>
		<rect x="55.839" y="99.698" width="144.54" height="48.121" ry="24.06" style="fill:#45475a;paint-order:markers fill stroke;stroke-linecap:square;stroke-width:177.42"/>
		<g transform="translate(-304.45)">
			<path d="m426.65 111.92h-22.246v24.248h22.594a28.993 31.284 0 002.0957-11.678 28.993 31.284 0 00-2.4434-12.57z" style="fill:#fab387;paint-order:markers fill stroke;stroke-linecap:square;stroke-width:177.42"/>
			<path d="m426.65 111.92a28.993 31.284 0 012.4434 12.57 28.993 31.284 0 01-2.0957 11.678h33.697v-24.248z" style="fill:#a6e3a1;paint-order:markers fill stroke;stroke-linecap:square;stroke-width:177.42"/>
		</g>
		<circle cx="79.778" cy="124.12" r="16.199" style="fill:#585b70;paint-order:markers fill stroke;stroke-linecap:square;stroke-width:177.42"/>
		<circle cx="176.44" cy="124.12" r="16.199" style="fill:#585b70;paint-order:markers fill stroke;stroke-linecap:square;stroke-width:177.42"/>
	</g>
</svg>
