<svg width="351.97" height="512" fill="#45475a" version="1.1" viewBox="0 0 351.97 512" xmlns="http://www.w3.org/2000/svg">
	<path d="m325.97 192.86c-13.149 0-23.832 10.411-23.832 23.561v39.721c0 20.82-4.9325 40.544-13.973 57.803l37.805 29.586c15.067-25.751 23.559-55.337 23.559-87.389v-39.721c0-13.149-10.409-23.561-23.559-23.561zm-323.25 17.807c-.54789 1.9176-.82031 3.5624-.82031 5.7539v39.721c0 87.936 65.473 160.53 150.12 172.04v33.422h-47.393c-13.149 0-23.559 10.409-23.559 23.559s10.409 23.832 23.559 23.832h142.18c13.149 0 23.834-10.683 23.834-23.832s-10.685-23.559-23.834-23.559h-47.393v-33.422c20.272-2.7394 39.449-8.7665 56.707-17.807v-.27344l-42.461-33.422c-12.054 3.8352-24.655 5.7539-37.805 5.7539-69.856 0-126.56-56.433-126.56-126.29v-8.7656z" style="fill:#cba6f7;paint-order:markers fill stroke;stroke-linecap:square;stroke-width:56.844"/>
	<path d="m270.63 300.24v-202.17c0-52.323-42.462-94.785-94.785-94.785s-94.783 42.462-94.783 94.785v53.418z"/>
	<path d="m0 88.025 351.96 275.87v60.223l-351.96-275.8z" style="fill:#f38ba8;paint-order:markers fill stroke;stroke-linecap:square;stroke-width:177.42"/>
</svg>
